<svg xmlns="http://www.w3.org/2000/svg" width="26" height="26" viewBox="0 0 26 26" fill="none">
<path d="M21.3516 5.28711V7.39731" stroke="#FFA200" stroke-linecap="round"/>
<path d="M20.3887 6.76733C21.0056 6.24533 21.3505 5.66236 21.3505 5.04736C21.3505 2.81207 16.7949 1 11.1752 1C5.55561 1 1 2.81207 1 5.04736C1 6.97929 4.40298 8.59508 8.95475 8.99807" stroke="#FFA200" stroke-linecap="round"/>
<path d="M1 5.28711V19.5478" stroke="#FFA200" stroke-linecap="round"/>
<path d="M1 10.7402C1 10.7402 2.55922 12.8578 6.6493 13.8331" stroke="#FFA200" stroke-linecap="round"/>
<path d="M1.22656 15.959C1.22656 15.959 2.47605 17.8068 7.02433 18.6077" stroke="#FFA200" stroke-linecap="round"/>
<path d="M1 19.5469C1 19.5469 2.33906 23.3058 10.5783 23.5084" stroke="#FFA200" stroke-linecap="round"/>
<path d="M15.8 25C20.8801 25 24.9984 20.7297 24.9984 15.4619C24.9984 10.1942 20.8801 5.92383 15.8 5.92383C10.7198 5.92383 6.60156 10.1942 6.60156 15.4619C6.60156 20.7297 10.7198 25 15.8 25Z" stroke="#FFA200" stroke-linecap="round"/>
<path d="M18.9641 14.1718C19.1099 14.1888 19.2565 14.1477 19.3741 14.0568C19.4918 13.9659 19.5717 13.832 19.5976 13.6822L19.6777 13.1082L19.7577 12.5343L19.2042 12.4513L13.4192 11.5833C13.2731 11.563 13.1251 11.603 13.0069 11.6944C12.8887 11.7859 12.8098 11.9218 12.787 12.0728C12.787 12.0728 12.034 17.4651 11.8048 19.1068C11.8021 19.363 11.8757 19.6139 12.0155 19.8251C12.1554 20.0363 12.3547 20.1977 12.5862 20.2871L13.3188 20.3969C13.3677 20.0395 13.3487 20.1268 13.3907 19.8229L13.7421 17.3089L18.4282 18.0123C18.5738 18.0293 18.7202 17.9882 18.8377 17.8973C18.9551 17.8063 19.0347 17.6724 19.0604 17.5228L19.1404 16.9488L19.2205 16.3748L18.6669 16.2918L13.9809 15.5884L14.2767 13.4782L18.9627 14.1816" fill="#FFA200"/>
</svg>