<svg xmlns="http://www.w3.org/2000/svg" width="24" height="24" viewBox="0 0 24 24" fill="none">
<path fill-rule="evenodd" clip-rule="evenodd" d="M8.94743 19.1056C9.44141 19.3526 9.64164 19.9532 9.39465 20.4472L7.89465 23.4472C7.64766 23.9412 7.04698 24.1414 6.55301 23.8944C6.05903 23.6474 5.8588 23.0468 6.10579 22.5528L7.60579 19.5528C7.85278 19.0588 8.45345 18.8586 8.94743 19.1056ZM15.053 19.1056C15.547 18.8586 16.1477 19.0588 16.3946 19.5528L17.8946 22.5528C18.1416 23.0468 17.9414 23.6474 17.4474 23.8944C16.9535 24.1414 16.3528 23.9412 16.1058 23.4472L14.6058 20.4472C14.3588 19.9532 14.559 19.3526 15.053 19.1056Z" fill="black"/>
<path fill-rule="evenodd" clip-rule="evenodd" d="M10 1.5C10 0.671573 10.2406 0 11 0L13 4.09372e-05C13.7594 4.09372e-05 14 0.671573 14 1.5V2H21.625C22.3844 2 23 2.67157 23 3.5V18.5C23 19.3284 22.3844 20 21.625 20H2.375C1.61561 20 1 19.3284 1 18.5V3.5C1 2.67157 1.61561 2 2.375 2H10V1.5ZM11 2L13 2V1.5C13 1.22386 12.7115 1 12.4583 1H11.5417C11.2885 1 11 1.22386 11 1.5V2ZM2.375 3C2.12187 3 2 3.22386 2 3.5V18.5C2 18.7761 2.12187 19 2.375 19H21.625C21.8781 19 22 18.7761 22 18.5V3.5C22 3.22386 21.8781 3 21.625 3H2.375Z" fill="black"/>
<path fill-rule="evenodd" clip-rule="evenodd" d="M10.25 5.25V14.25H8.75V5.25H10.25ZM19.25 6.75V14.25H17.75V6.75H19.25ZM5.75 8.25V14.25H4.25V8.25H5.75ZM14.75 9.75V14.25H13.25V9.75H14.75ZM3 16H21V17H3V16Z" fill="black"/>
</svg>