<svg xmlns="http://www.w3.org/2000/svg" width="24" height="24" viewBox="0 0 24 24" fill="none">
<path d="M21.2767 18.2962H2.72656V8.63286C2.72656 6.48728 3.57888 4.42959 5.09603 2.91244C6.61318 1.39529 8.67088 0.542969 10.8165 0.542969H13.4767C15.5454 0.542969 17.5293 1.36475 18.9921 2.82754C20.4549 4.29032 21.2767 6.27428 21.2767 8.34297V18.2962Z" stroke="black"/>
<path d="M22.0029 18.293H1.99659C1.19162 18.293 0.539062 18.9455 0.539062 19.7505V22.0022C0.539062 22.8072 1.19162 23.4597 1.99659 23.4597H22.0029C22.8079 23.4597 23.4604 22.8072 23.4604 22.0022V19.7505C23.4604 18.9455 22.8079 18.293 22.0029 18.293Z" stroke="black"/>
<path d="M6.79688 6.61619C7.54274 5.43861 8.70166 4.58216 10.0463 4.21484" stroke="black" stroke-linecap="round"/>
</svg>