<svg xmlns="http://www.w3.org/2000/svg" width="24" height="24" viewBox="0 0 24 24" fill="none">
<path fill-rule="evenodd" clip-rule="evenodd" d="M7.89744 0C8.32227 0 8.66667 0.343595 8.66667 0.767442V2.04651H15.3333V0.767442C15.3333 0.343595 15.6777 0 16.1026 0C16.5274 0 16.8718 0.343595 16.8718 0.767442V2.04651H19.1795C19.9275 2.04651 20.6449 2.34298 21.1739 2.8707C21.7028 3.39842 22 4.11416 22 4.86047V8.95349C22 9.37733 21.6556 9.72093 21.2308 9.72093C20.8059 9.72093 20.4615 9.37733 20.4615 8.95349V4.86047C20.4615 4.52124 20.3265 4.1959 20.086 3.95603C19.8456 3.71615 19.5195 3.5814 19.1795 3.5814H16.8718V5.88372C16.8718 6.30757 16.5274 6.65116 16.1026 6.65116C15.6777 6.65116 15.3333 6.30757 15.3333 5.88372V3.5814H8.66667V5.88372C8.66667 6.30757 8.32227 6.65116 7.89744 6.65116C7.4726 6.65116 7.12821 6.30757 7.12821 5.88372V3.5814H4.82051C4.48049 3.5814 4.1544 3.71615 3.91397 3.95603C3.67353 4.1959 3.53846 4.52123 3.53846 4.86047V19.186C3.53846 19.5253 3.67353 19.8506 3.91397 20.0905C4.1544 20.3304 4.48049 20.4651 4.82051 20.4651H8.92308C9.34791 20.4651 9.69231 20.8087 9.69231 21.2326C9.69231 21.6564 9.34791 22 8.92308 22H4.82051C4.07247 22 3.35506 21.7035 2.82611 21.1758C2.29716 20.6481 2 19.9324 2 19.186V4.86047C2 4.11416 2.29716 3.39842 2.82611 2.8707C3.35506 2.34298 4.07247 2.04651 4.82051 2.04651H7.12821V0.767442C7.12821 0.343595 7.4726 0 7.89744 0Z" fill="black"/>
<path fill-rule="evenodd" clip-rule="evenodd" d="M16.9766 10.6324C16.5771 9.7892 15.4229 9.7892 15.0234 10.6324L14.013 12.7652C13.8544 13.1 13.5477 13.3321 13.193 13.3858L10.9336 13.7278C10.0404 13.863 9.68369 15.0065 10.3301 15.6628L11.965 17.3229C12.2217 17.5836 12.3388 17.9591 12.2782 18.3271L11.8922 20.6713C11.7397 21.598 12.6734 22.3047 13.4724 21.8672L15.4932 20.7604C15.8105 20.5867 16.1895 20.5867 16.5068 20.7604L18.5276 21.8672C19.3266 22.3047 20.2603 21.598 20.1078 20.6713L19.7218 18.3271C19.6612 17.9591 19.7783 17.5836 20.035 17.3229L21.6699 15.6628C22.3163 15.0065 21.9596 13.863 21.0664 13.7278L18.807 13.3858C18.4523 13.3321 18.1456 13.1 17.987 12.7652L16.9766 10.6324Z" fill="black"/>
</svg>