<svg xmlns="http://www.w3.org/2000/svg" width="24" height="24" viewBox="0 0 24 24" fill="none">
<mask id="mask0_1083_70416" style="mask-type:luminance" maskUnits="userSpaceOnUse" x="0" y="0" width="24" height="24">
<path d="M24 0H0V23.554H24V0Z" fill="white"/>
</mask>
<g mask="url(#mask0_1083_70416)">
<path d="M14.2415 22.9838H0.733527C0.707231 22.9838 0.681288 22.9777 0.657715 22.9661C0.634142 22.9544 0.613574 22.9375 0.597611 22.9166C0.581648 22.8957 0.57072 22.8714 0.565676 22.8456C0.560631 22.8198 0.561607 22.7932 0.568527 22.7678L4.99153 6.4698C5.00177 6.43286 5.02406 6.40039 5.05486 6.37757C5.08566 6.35474 5.1232 6.34286 5.16153 6.3438H18.4785C18.5047 6.34377 18.5306 6.34972 18.5541 6.36119C18.5776 6.37266 18.5982 6.38935 18.6143 6.40999C18.6304 6.43063 18.6416 6.45467 18.647 6.48029C18.6524 6.5059 18.6519 6.53241 18.6455 6.5578L14.4075 22.8578C14.3976 22.8942 14.376 22.9262 14.3459 22.949C14.3159 22.9718 14.2792 22.984 14.2415 22.9838Z" stroke="#FF024A" stroke-linecap="round"/>
<path d="M19.0143 6.47952C19.0044 6.44332 18.9829 6.41138 18.9531 6.38861C18.9233 6.36584 18.8868 6.35351 18.8493 6.35352H18.5043C18.5543 6.38552 18.4213 6.45352 18.3963 6.55352L14.4113 22.8535C14.3913 22.9295 14.6943 22.9815 14.6113 22.9815H14.3633C14.3703 22.9815 14.8093 22.9925 14.8163 22.9925H23.2693C23.2955 22.9923 23.3213 22.9861 23.3448 22.9744C23.3683 22.9627 23.3888 22.9458 23.4047 22.9249C23.4206 22.9041 23.4316 22.8799 23.4367 22.8542C23.4418 22.8284 23.441 22.8019 23.4343 22.7765L19.0143 6.47952Z" stroke="#FF024A" stroke-linecap="round"/>
<path d="M23.2025 22.9949L18.9805 20.7109" stroke="#FF024A" stroke-linecap="round"/>
<path d="M14.4805 22.9949L18.7025 20.7109" stroke="#FF024A" stroke-linecap="round"/>
<path d="M8.54688 6.20019V3.37919C8.58981 2.59219 8.94226 1.8541 9.52733 1.32599C10.1124 0.797868 10.8826 0.52258 11.6699 0.560189C12.4577 0.521764 13.2286 0.796683 13.8144 1.32489C14.4001 1.85309 14.7529 2.59164 14.7959 3.37919V6.20019" stroke="#FF024A" stroke-linecap="round"/>
<path d="M13.9835 14.7139C13.9792 14.6648 13.9559 14.6194 13.9185 14.5872C13.8812 14.5551 13.8327 14.5388 13.7835 14.5419H9.79354C9.79354 14.5419 9.58354 14.5639 9.58354 14.8469V15.6679C9.58354 15.6679 9.60554 15.8779 9.88854 15.8779H12.1355C12.1735 15.8849 12.2165 15.9089 12.1985 15.9959C11.9346 16.5189 11.5185 16.9496 11.005 17.2315C10.4915 17.5134 9.90468 17.6331 9.3218 17.575C8.73891 17.5169 8.18729 17.2836 7.73956 16.9059C7.29183 16.5281 6.96899 16.0237 6.81354 15.4589C6.61305 14.744 6.6936 13.9795 7.03868 13.3221C7.38375 12.6647 7.96721 12.1642 8.66947 11.9232C9.37173 11.6821 10.1396 11.7188 10.8156 12.0258C11.4917 12.3327 12.0248 12.8866 12.3055 13.5739H12.3125C12.3351 13.6287 12.3712 13.6767 12.4176 13.7135C12.464 13.7502 12.5191 13.7745 12.5775 13.7839H13.6875C13.9105 13.7839 13.8795 13.6549 13.8875 13.5889C13.6272 12.5483 12.9974 11.6378 12.1156 11.0271C11.2338 10.4163 10.1601 10.1469 9.09441 10.269C8.02872 10.3911 7.04374 10.8964 6.32294 11.6908C5.60214 12.4852 5.19467 13.5145 5.17642 14.587C5.15817 15.6595 5.53039 16.7021 6.22374 17.5206C6.9171 18.339 7.88431 18.8775 8.94524 19.0358C10.0062 19.1941 11.0884 18.9614 11.9905 18.381C12.8926 17.8006 13.5529 16.912 13.8485 15.8809C13.967 15.5042 14.0154 15.109 13.9915 14.7149" fill="#FF024A"/>
</g>
</svg>