<svg xmlns="http://www.w3.org/2000/svg" width="24" height="24" viewBox="0 0 24 24" fill="none">
<mask id="mask0_1083_2224" style="mask-type:luminance" maskUnits="userSpaceOnUse" x="0" y="0" width="24" height="24">
<path d="M24 0H0V24H24V0Z" fill="white"/>
</mask>
<g mask="url(#mask0_1083_2224)">
<path d="M14.2421 23.4137H0.733819C0.707515 23.4138 0.681552 23.4077 0.657952 23.3958C0.634352 23.384 0.613751 23.3668 0.597752 23.3455C0.581754 23.3242 0.57079 23.2995 0.565713 23.2732C0.560637 23.2469 0.561586 23.2198 0.568485 23.1939L4.99186 6.59333C5.00193 6.55649 5.02353 6.52401 5.05337 6.50082C5.08321 6.47763 5.11966 6.465 5.15719 6.46484H18.4792C18.5053 6.46491 18.5312 6.47104 18.5547 6.48279C18.5782 6.49454 18.5987 6.51158 18.6148 6.53263C18.6309 6.55369 18.642 6.5782 18.6474 6.6043C18.6528 6.6304 18.6523 6.65741 18.6459 6.68327L14.4075 23.2895C14.3968 23.3257 14.375 23.3574 14.3452 23.3798C14.3153 23.4022 14.2792 23.4141 14.2421 23.4137Z" stroke="black" stroke-width="0.8" stroke-linecap="round"/>
<path d="M19.0094 6.6031C18.9996 6.56614 18.978 6.53352 18.9481 6.51029C18.9183 6.48707 18.8817 6.47452 18.8441 6.47461H18.4952C18.5457 6.50745 18.4126 6.58025 18.3873 6.68162L14.4067 23.2879C14.3871 23.365 14.6869 23.4178 14.6113 23.4178H14.3633L14.8158 23.4292H23.2689C23.2951 23.429 23.3209 23.4227 23.3444 23.4108C23.3678 23.3988 23.3883 23.3816 23.4042 23.3604C23.4202 23.3392 23.4312 23.3146 23.4364 23.2884C23.4416 23.2623 23.4408 23.2352 23.4342 23.2094L19.0094 6.6031Z" stroke="black" stroke-width="0.8" stroke-linecap="round"/>
<path d="M23.2021 23.4306L18.9805 21.1035" stroke="black" stroke-width="0.8" stroke-linecap="round"/>
<path d="M14.4805 23.4306L18.7021 21.1035" stroke="black" stroke-width="0.8" stroke-linecap="round"/>
<path d="M8.54688 6.31824V3.4444C8.58964 2.64268 8.94186 1.89073 9.52669 1.35261C10.1115 0.814484 10.8815 0.533874 11.6686 0.571999C12.4564 0.532709 13.2275 0.812794 13.8132 1.35104C14.399 1.88928 14.7518 2.6419 14.7945 3.4444V6.31824" stroke="black" stroke-width="0.8" stroke-linecap="round"/>
<path d="M13.9834 14.9919C13.9791 14.9418 13.9558 14.8953 13.9183 14.8625C13.8809 14.8297 13.8324 14.8131 13.7831 14.8163H9.78844C9.78844 14.8163 9.57827 14.8391 9.57827 15.1275V15.9641C9.57827 15.9641 9.60069 16.1783 9.88372 16.1783H12.1255C12.1634 16.1854 12.2068 16.2097 12.1886 16.2982C11.9245 16.8307 11.5084 17.2693 10.995 17.5563C10.4816 17.8433 9.89499 17.9653 9.31229 17.9061C8.7296 17.8469 8.17813 17.6094 7.73043 17.2248C7.28273 16.8402 6.95977 16.3266 6.80403 15.7514C6.58513 15.0168 6.65469 14.2243 6.99803 13.5409C7.34137 12.8575 7.93168 12.3366 8.64455 12.088C9.35742 11.8395 10.1372 11.8826 10.8195 12.2083C11.5018 12.534 12.0333 13.1169 12.3021 13.8341H12.3091C12.3316 13.8899 12.3677 13.9389 12.4141 13.9763C12.4604 14.0138 12.5155 14.0386 12.5739 14.0482H13.6836C13.9064 14.0482 13.8755 13.9169 13.8798 13.8498C13.6195 12.7895 12.9898 11.8618 12.1081 11.2394C11.2263 10.617 10.1526 10.3424 9.08694 10.4668C8.02126 10.5911 7.03625 11.1058 6.31539 11.9152C5.59454 12.7245 5.18697 13.7733 5.16862 14.866C5.15026 15.9588 5.52236 17.0211 6.21562 17.8551C6.90887 18.6891 7.87601 19.2379 8.9369 19.3993C9.99778 19.5608 11.0801 19.3237 11.9822 18.7325C12.8843 18.1412 13.5448 17.236 13.8405 16.1854C13.9579 15.8015 14.0054 15.3989 13.9806 14.9976" fill="black"/>
</g>
</svg>