<svg xmlns="http://www.w3.org/2000/svg" width="20" height="20" viewBox="0 0 20 20">
  <g id="ico_support" transform="translate(-159 -44)">
    <rect id="사각형_11" data-name="사각형 11" width="20" height="20" transform="translate(159 44)" fill="none"/>
    <g id="그룹_1" data-name="그룹 1" transform="translate(43 18)">
      <g id="Layer_2" data-name="Layer 2" transform="translate(117 27)">
        <path id="패스_10" data-name="패스 10" d="M13.73,7.839H12.579V6.891c0-2.82-2.167-4.755-5.214-4.755s-5.15,1.935-5.15,4.755v.947H1V6.891A6.142,6.142,0,0,1,7.365,1,6.142,6.142,0,0,1,13.73,6.891Z" transform="translate(1.635 -1)" fill="#212121"/>
        <path id="패스_11" data-name="패스 11" d="M4.738,22.2H4a3,3,0,0,1-3-3V18a3,3,0,0,1,3-3h.738A1.08,1.08,0,0,1,5.8,16.08v5.04A1.08,1.08,0,0,1,4.738,22.2ZM4,16.2A1.8,1.8,0,0,0,2.2,18v1.2A1.8,1.8,0,0,0,4,21h.6V16.2Z" transform="translate(-1 -8.6)" fill="#212121"/>
        <path id="패스_12" data-name="패스 12" d="M24.8,22.2h-.72A1.08,1.08,0,0,1,23,21.12V16.08A1.08,1.08,0,0,1,24.08,15h.72a3,3,0,0,1,3,3v1.2a3,3,0,0,1-3,3ZM24.2,21h.6a1.8,1.8,0,0,0,1.8-1.8V18a1.8,1.8,0,0,0-1.8-1.8h-.6Z" transform="translate(-9.8 -8.6)" fill="#212121"/>
        <path id="패스_13" data-name="패스 13" d="M15.24,14.094a3.785,3.785,0,0,1-4.115,3.73" transform="translate(-0.83 -0.793)" fill="#fff" stroke="#212121" stroke-linecap="round" stroke-width="1.2"/>
      </g>
      <circle id="타원_1" data-name="타원 1" cx="0.947" cy="0.947" r="0.947" transform="translate(125.526 43.105)" fill="#212121"/>
    </g>
  </g>
</svg>
