<svg xmlns="http://www.w3.org/2000/svg" width="24" height="24" viewBox="0 0 24 24" fill="none">
<path fill-rule="evenodd" clip-rule="evenodd" d="M5.09302 2.76923C5.09302 2.3444 5.43662 2 5.86047 2H18.1395C18.5634 2 18.907 2.3444 18.907 2.76923V9.39935C18.907 13.1571 15.7961 16.17 12 16.17C8.20389 16.17 5.09302 13.1571 5.09302 9.39935V2.76923ZM6.62791 3.53846V9.39935C6.62791 12.2712 9.01499 14.6316 12 14.6316C14.985 14.6316 17.3721 12.2712 17.3721 9.39935V3.53846H6.62791Z" fill="black"/>
<path fill-rule="evenodd" clip-rule="evenodd" d="M1 6.17004C1 5.74521 1.3436 5.40081 1.76744 5.40081H5.86047C6.28431 5.40081 6.62791 5.74521 6.62791 6.17004V11.0283C6.62791 11.4532 6.28431 11.7976 5.86047 11.7976C4.63472 11.7976 3.40779 11.3118 2.49012 10.3436C1.56809 9.37084 1 7.9571 1 6.17004ZM2.58069 6.93927C2.71064 7.98889 3.10465 8.75833 3.6029 9.28401C4.02609 9.7305 4.54441 10.0231 5.09302 10.163V6.93927H2.58069ZM17.3721 6.17004C17.3721 5.74521 17.7157 5.40081 18.1395 5.40081H22.2326C22.6564 5.40081 23 5.74521 23 6.17004C23 7.9571 22.4319 9.37084 21.5099 10.3436C20.5922 11.3118 19.3653 11.7976 18.1395 11.7976C17.7157 11.7976 17.3721 11.4532 17.3721 11.0283V6.17004ZM18.907 6.93927V10.163C19.4556 10.0231 19.9739 9.7305 20.3971 9.28401C20.8953 8.75833 21.2894 7.98889 21.4193 6.93927H18.907Z" fill="black"/>
<path fill-rule="evenodd" clip-rule="evenodd" d="M12 14.6316C12.4238 14.6316 12.7674 14.976 12.7674 15.4008V18.3158C12.7674 18.7406 12.4238 19.085 12 19.085C11.5762 19.085 11.2326 18.7406 11.2326 18.3158V15.4008C11.2326 14.976 11.5762 14.6316 12 14.6316Z" fill="black"/>
<path fill-rule="evenodd" clip-rule="evenodd" d="M8.63955 17.8969C8.78108 17.6784 9.02334 17.5466 9.28326 17.5466H14.5801C14.8313 17.5466 15.0665 17.6697 15.21 17.8763L17.2345 20.7913C17.3978 21.0264 17.4172 21.333 17.2849 21.5869C17.1526 21.8408 16.8905 22 16.6047 22H7.39535C7.114 22 6.85521 21.8457 6.72094 21.5979C6.58667 21.3501 6.59845 21.0485 6.75165 20.8119L8.63955 17.8969ZM9.70003 19.085L8.80852 20.4615H15.1353L14.1793 19.085H9.70003Z" fill="black"/>
</svg>