<svg xmlns="http://www.w3.org/2000/svg" width="34" height="34" viewBox="0 0 34 34">
    <g data-name="타원 179" style="fill:#fff;stroke:#d1d1d1">
        <circle cx="17" cy="17" r="17" style="stroke:none"/>
        <circle cx="17" cy="17" r="16.5" style="fill:none"/>
    </g>
    <g data-name="Iconly/Bold/Camera">
        <path data-name="Camera" d="M22.64 26H11.36A4.362 4.362 0 0 1 7 21.645v-5.934a4.362 4.362 0 0 1 4.36-4.355.2.2 0 0 0 .191-.12l.059-.12.083-.175c.261-.55.557-1.173.737-1.533A2.433 2.433 0 0 1 14.64 8h4.71a2.44 2.44 0 0 1 2.22 1.408c.157.315.4.82.627 1.308l.142.3.1.22a.225.225 0 0 0 .2.12A4.362 4.362 0 0 1 27 15.711v5.934A4.362 4.362 0 0 1 22.64 26zM17 14.4a3.922 3.922 0 0 0-2.79 1.162 3.867 3.867 0 0 0-1.14 2.767A3.924 3.924 0 0 0 17 22.254a3.9 3.9 0 0 0 2.77-1.148 3.915 3.915 0 0 0 .01-5.554A3.9 3.9 0 0 0 17 14.4zm5.61-.239a.9.9 0 1 0 .911.909.906.906 0 0 0-.911-.907zM17 20.756a2.423 2.423 0 0 1-2.43-2.427v-.01a2.337 2.337 0 0 1 .7-1.7A2.43 2.43 0 1 1 17 20.756z"/>
    </g>
</svg>
