<svg xmlns="http://www.w3.org/2000/svg" width="22" height="20" viewBox="0 0 22 20" fill="none">
<path fill-rule="evenodd" clip-rule="evenodd" d="M16.9177 1.56379C16.8706 1.54255 16.8163 1.53398 16.762 1.54071C16.7078 1.54743 16.6598 1.56856 16.6231 1.59796M16.6231 1.59796L11.7674 5.49361V11.322L16.623 15.2175C16.6597 15.247 16.7077 15.2681 16.762 15.2749C16.8163 15.2816 16.8706 15.273 16.9177 15.2518C16.9646 15.2306 16.9996 15.1992 17.0221 15.1651C17.0443 15.1314 17.0543 15.0954 17.0543 15.0611V1.75487C17.0543 1.72057 17.0443 1.68416 17.0221 1.65047C16.9996 1.61642 16.9646 1.58494 16.9177 1.56379M10.2326 10.9223H1.90439C1.79664 10.9223 1.69921 10.8808 1.63207 10.8162C1.56598 10.7526 1.53488 10.673 1.53488 10.597V6.21861C1.53488 6.14255 1.56598 6.06302 1.63207 5.99939C1.69921 5.93475 1.79664 5.89325 1.90439 5.89325H10.2326V10.9223ZM10.7307 4.35479L15.664 0.396866C15.9262 0.186624 16.242 0.0549782 16.5736 0.0138799C16.9051 -0.0272107 17.2428 0.0232546 17.5479 0.161C17.8533 0.298839 18.1161 0.519702 18.3023 0.801788C18.4886 1.08411 18.5892 1.41479 18.5891 1.75487C18.5891 1.75473 18.5891 1.75501 18.5891 1.75487V4.50702C19.1639 4.67168 19.828 4.95925 20.4183 5.40962C21.2749 6.06314 22 7.0851 22 8.54251C22 10.0004 21.2743 11.0201 20.4163 11.6703C19.8266 12.1172 19.1634 12.4013 18.5891 12.5632V15.0603C18.5891 15.0602 18.5891 15.0604 18.5891 15.0603C18.5892 15.4004 18.4886 15.7315 18.3023 16.0138C18.1161 16.2959 17.8533 16.5167 17.5479 16.6546C17.2428 16.7923 16.9051 16.8428 16.5736 16.8017C16.242 16.7606 15.9263 16.6291 15.6641 16.4188L11.7674 13.2926V17.5257C11.7674 18.2051 11.4887 18.8547 10.9966 19.3219C10.5381 19.7573 9.93052 20 9.2989 20H8.60807C7.97646 20 7.36887 19.7573 6.91035 19.3219C6.41827 18.8547 6.13953 18.2051 6.13953 17.5257V12.4608H1.90439C1.40907 12.4608 0.928121 12.2717 0.568824 11.9257C0.208475 11.5788 0 11.1015 0 10.597V6.21861C0 5.71406 0.208474 5.23677 0.568824 4.88984C0.928122 4.54393 1.40907 4.35479 1.90439 4.35479H10.7307ZM7.67442 12.4608H10.2326V17.5257C10.2326 17.7827 10.1271 18.0283 9.94102 18.2051C9.7676 18.3698 9.53779 18.4615 9.2989 18.4615H8.60807C8.36918 18.4615 8.13938 18.3698 7.96596 18.2051C7.77984 18.0283 7.67442 17.7827 7.67442 17.5257V12.4608ZM18.5891 10.9417C18.8922 10.8219 19.2074 10.6577 19.4907 10.4431C20.0538 10.0163 20.4651 9.41658 20.4651 8.54251C20.4651 7.66793 20.0533 7.06457 19.4887 6.6338C19.206 6.41811 18.8915 6.25251 18.5891 6.13106V10.9417Z" fill="black"/>
</svg>