<svg xmlns="http://www.w3.org/2000/svg" width="24" height="24" viewBox="0 0 24 24" fill="none">
<path fill-rule="evenodd" clip-rule="evenodd" d="M2 5.84615C2 3.72198 3.72198 2 5.84615 2H18.1538C20.278 2 22 3.72198 22 5.84615V18.1538C22 20.278 20.278 22 18.1538 22H5.84615C3.72198 22 2 20.278 2 18.1538V5.84615ZM5.84615 3.53846C4.57165 3.53846 3.53846 4.57165 3.53846 5.84615V18.1538C3.53846 19.4283 4.57165 20.4615 5.84615 20.4615H18.1538C19.4283 20.4615 20.4615 19.4283 20.4615 18.1538V5.84615C20.4615 4.57165 19.4283 3.53846 18.1538 3.53846H5.84615Z" fill="black"/>
<path d="M16.1056 11.5528L9.72361 8.36178C9.39116 8.19556 9 8.4373 9 8.80899V15.191C9 15.5627 9.39116 15.8044 9.72361 15.6382L16.1056 12.4472C16.4741 12.2629 16.4741 11.737 16.1056 11.5528Z" fill="black"/>
<path fill-rule="evenodd" clip-rule="evenodd" d="M8 9.25161C8 8.32239 8.97789 7.71802 9.80902 8.13358L16.191 11.3246C17.1123 11.7852 17.1123 13.1 16.191 13.5606L9.80902 16.7516C8.97789 17.1672 8 16.5628 8 15.6336V9.25161ZM9.5 9.65612V15.2291L15.0729 12.4426L9.5 9.65612Z" fill="black"/>
</svg>