<svg xmlns="http://www.w3.org/2000/svg" width="24" height="24" viewBox="0 0 24 24" fill="none">
<path d="M12.3623 0.770154L15.6009 7.64254C15.6299 7.7038 15.6726 7.7568 15.7253 7.79699C15.7781 7.83718 15.8394 7.86337 15.904 7.87331L23.1441 8.97513C23.2188 8.98636 23.2889 9.01927 23.3467 9.07013C23.4044 9.12098 23.4473 9.18776 23.4707 9.26288C23.494 9.33801 23.4968 9.41847 23.4787 9.49516C23.4606 9.57185 23.4223 9.6417 23.3683 9.69679L18.1289 15.0458C18.082 15.0935 18.0469 15.1524 18.0267 15.2175C18.0065 15.2826 18.0018 15.3519 18.013 15.4193L19.2496 22.9734C19.2623 23.0511 19.254 23.131 19.2256 23.2041C19.1972 23.2772 19.1498 23.3404 19.0889 23.3868C19.0279 23.4331 18.9558 23.4607 18.8807 23.4664C18.8056 23.4721 18.7304 23.4556 18.6638 23.4189L12.1878 19.852C12.129 19.8193 12.0634 19.8022 11.9968 19.8022C11.9302 19.8022 11.8646 19.8193 11.8057 19.852L5.33611 23.4189C5.26953 23.4558 5.19441 23.4724 5.11928 23.4667C5.04415 23.4611 4.97203 23.4335 4.91113 23.3871C4.85023 23.3407 4.80299 23.2773 4.77478 23.2042C4.74656 23.131 4.73852 23.0511 4.75155 22.9734L5.98689 15.4193C5.99753 15.3519 5.99256 15.2828 5.97239 15.2178C5.95222 15.1528 5.91745 15.0938 5.871 15.0458L0.637992 9.69679C0.583955 9.64179 0.545691 9.57205 0.527529 9.49546C0.509367 9.41886 0.512031 9.33848 0.535221 9.26339C0.558411 9.1883 0.601201 9.1215 0.65875 9.07056C0.716299 9.01962 0.78631 8.98657 0.860863 8.97513L8.09716 7.87064C8.16173 7.8607 8.22303 7.83452 8.27582 7.79432C8.32861 7.75413 8.37131 7.70114 8.40026 7.63987L11.6389 0.770154C11.6723 0.699588 11.7239 0.640197 11.7878 0.598677C11.8517 0.557156 11.9254 0.535156 12.0006 0.535156C12.0758 0.535156 12.1495 0.557156 12.2134 0.598677C12.2773 0.640197 12.3289 0.699588 12.3623 0.770154Z" stroke="black" stroke-linecap="round"/>
</svg>