<svg xmlns="http://www.w3.org/2000/svg" width="24" height="24" viewBox="0 0 24 24" fill="none">
<mask id="mask0_885_138880" style="mask-type:luminance" maskUnits="userSpaceOnUse" x="0" y="0" width="24" height="24">
<path d="M24 0H0V24H24V0Z" fill="white"/>
</mask>
<g mask="url(#mask0_885_138880)">
<path d="M7.08984 11.5173V17.6547C7.09937 17.831 7.17635 17.9962 7.30397 18.1143C7.4316 18.2325 7.59953 18.294 7.77113 18.2855H18.9437C19.1153 18.294 19.2832 18.2325 19.4108 18.1143C19.5385 17.9962 19.6154 17.831 19.625 17.6547V9.12369C19.6154 8.94746 19.5385 8.78225 19.4108 8.6641C19.2832 8.54594 19.1153 8.48443 18.9437 8.49297H8.90236" stroke="black" stroke-linecap="round"/>
<path d="M22.9287 18.5488H3.79044C3.46823 18.5488 3.20703 18.8172 3.20703 19.1482V22.9025C3.20703 23.2335 3.46823 23.5019 3.79044 23.5019H22.9287C23.2509 23.5019 23.5121 23.2335 23.5121 22.9025V19.1482C23.5121 18.8172 23.2509 18.5488 22.9287 18.5488Z" stroke="black"/>
<path d="M8.24061 2.96357L2.91236 8.62438C2.8614 8.67849 2.80037 8.72151 2.7329 8.75089C2.66542 8.78027 2.59289 8.79541 2.51961 8.79541C2.44633 8.79541 2.37379 8.78027 2.30632 8.75089C2.23885 8.72151 2.17782 8.67849 2.12685 8.62438L0.651162 7.05215C0.546743 6.94237 0.488281 6.79497 0.488281 6.64147C0.488281 6.48797 0.546743 6.34057 0.651162 6.23078L5.93238 0.666606C5.98348 0.613225 6.04442 0.57083 6.11163 0.54189C6.17884 0.512951 6.25099 0.498047 6.32387 0.498047C6.39674 0.498047 6.46889 0.512951 6.5361 0.54189C6.60332 0.57083 6.66425 0.613225 6.71535 0.666606L8.24061 2.1422C8.34503 2.25199 8.40349 2.39939 8.40349 2.55289C8.40349 2.70639 8.34503 2.85379 8.24061 2.96357Z" stroke="black"/>
<path d="M7.64844 3.40039C7.64844 3.40039 7.75521 4.97654 10.0787 5.06925C10.0787 5.06925 13.7787 5.192 14.7282 6.23145C15.3846 6.82883 15.8469 7.61869 16.0526 8.49447" stroke="black"/>
<path d="M16.0524 8.49438H13.0693C13.0693 8.49438 13.9514 11.5174 11.8542 11.5174H7.15127L3.64062 7.73047" stroke="black"/>
</g>
</svg>